<?xml version="1.0" standalone="no"?>
<!DOCTYPE svg PUBLIC "-//W3C//DTD SVG 20010904//EN"
 "http://www.w3.org/TR/2001/REC-SVG-20010904/DTD/svg10.dtd">
<svg version="1.0" xmlns="http://www.w3.org/2000/svg"
 width="322.000000pt" height="322.000000pt" viewBox="0 0 322.000000 322.000000"
 preserveAspectRatio="xMidYMid meet">
<metadata>
Created by potrace 1.11, written by Peter Selinger 2001-2013
</metadata>
<g transform="translate(0.000000,322.000000) scale(0.100000,-0.100000)"
fill="#000000" stroke="none">
<path d="M1339 3180 c-150 -27 -313 -82 -459 -156 -692 -352 -1024 -1152 -788
-1904 126 -403 442 -765 828 -949 521 -248 1102 -204 1590 120 128 85 334 291
419 419 247 372 332 811 240 1237 -138 637 -648 1123 -1296 1233 -152 26 -385
26 -534 0z m581 -55 c294 -66 550 -201 756 -397 250 -240 405 -535 465 -888
19 -111 16 -374 -5 -495 -119 -668 -653 -1181 -1323 -1270 -582 -78 -1158 182
-1485 670 -415 619 -336 1430 191 1955 236 235 511 378 841 436 107 19 459 12
560 -11z"/>
<path d="M1415 3109 c-341 -46 -626 -189 -871 -433 -218 -219 -352 -462 -416
-759 -30 -138 -32 -455 -5 -592 128 -630 610 -1102 1236 -1209 126 -21 376
-21 502 0 244 42 477 142 671 290 224 170 423 449 514 721 56 166 68 252 69
478 0 184 -3 223 -23 314 -70 312 -211 563 -440 782 -206 199 -454 329 -737
389 -116 24 -387 35 -500 19z m354 -39 c342 -45 644 -192 881 -431 111 -111
190 -219 259 -350 48 -92 121 -285 121 -317 -1 -10 -20 -31 -43 -48 -23 -18
-137 -104 -254 -192 -187 -142 -220 -163 -282 -182 -39 -11 -71 -23 -71 -25 0
-3 19 -2 43 1 63 8 98 8 137 0 26 -6 31 -5 20 3 -13 10 -13 12 0 21 22 14 41
12 83 -10 20 -11 40 -20 44 -20 13 0 -13 20 -50 38 l-37 18 217 137 218 136 9
-27 c4 -15 9 -108 9 -207 1 -193 -15 -302 -65 -450 l-23 -70 -517 -3 -518 -2
0 -58 0 -57 282 0 283 0 3 -262 2 -262 -63 -45 c-60 -43 -223 -135 -239 -136
-5 0 -8 67 -8 149 l0 148 60 6 c76 7 137 40 168 92 18 32 22 52 20 100 -4 70
-24 102 -83 137 -36 21 -55 23 -192 26 l-153 4 0 -366 0 -365 -37 -11 c-121
-33 -215 -44 -378 -45 -174 0 -304 16 -328 40 -11 10 -11 32 1 121 11 83 12
116 3 138 -8 23 -8 32 2 38 9 5 9 12 1 25 -7 12 -8 40 -3 83 4 36 9 109 10
163 1 53 5 97 9 97 4 0 13 -7 21 -16 10 -13 10 -17 -2 -25 -11 -7 -10 -9 7 -9
36 0 110 -105 101 -144 -5 -19 -4 -19 6 -3 10 15 17 8 48 -60 l36 -78 4 55 c3
42 -1 66 -19 104 -22 49 -23 51 -6 89 10 21 21 40 25 43 4 2 20 -12 34 -33
l27 -38 -5 43 c-3 23 -3 42 -1 42 2 0 22 -16 44 -36 45 -41 48 -39 20 16 -14
27 -28 40 -50 45 -16 4 -34 4 -39 1 -5 -4 -11 0 -14 6 -3 10 -7 10 -18 2 -8
-6 -37 -14 -66 -17 -39 -5 -54 -2 -64 9 -7 9 -32 29 -55 45 -42 29 -67 80 -47
100 12 12 141 -10 186 -33 21 -10 47 -33 57 -51 31 -51 24 -5 -7 52 -31 56
-78 88 -145 99 l-43 8 75 24 c58 19 96 25 167 25 50 0 89 3 85 6 -4 4 -25 16
-47 28 -51 27 -133 28 -210 1 l-59 -20 25 26 c13 14 40 34 59 45 44 23 24 25
-31 2 -28 -11 -46 -26 -55 -47 -8 -17 -28 -47 -45 -66 l-31 -35 6 35 c31 169
32 414 1 505 -10 27 -13 51 -9 52 5 2 8 73 6 159 -2 86 -1 168 3 181 3 14 23
41 43 61 21 20 27 28 15 18 -13 -11 -26 -17 -29 -13 -8 8 73 177 85 177 6 0 8
6 5 14 -10 25 14 52 61 71 25 9 44 19 42 22 -3 2 -22 -3 -42 -11 -37 -16 -37
-16 -31 7 4 12 9 37 13 55 3 17 9 32 12 32 13 0 71 -66 65 -73 -4 -4 -1 -7 7
-7 15 0 69 -50 69 -63 0 -4 -17 -14 -38 -22 -20 -9 -43 -25 -51 -36 -22 -36
-40 -110 -32 -132 7 -17 8 -18 14 -4 4 10 13 17 21 17 20 0 106 -61 106 -75 0
-6 -20 -27 -44 -48 -26 -21 -56 -60 -71 -91 -24 -50 -26 -62 -20 -118 7 -59 9
-61 18 -33 6 16 23 49 39 74 15 25 28 48 28 52 0 3 7 23 15 43 l16 37 47 -26
47 -26 -43 39 c-40 36 -42 40 -31 65 7 15 19 27 27 27 12 0 12 -3 -3 -20 -17
-19 -17 -19 12 -8 26 10 37 7 86 -21 32 -18 57 -30 57 -28 0 3 -21 17 -46 32
-25 15 -42 31 -37 35 4 5 37 11 73 13 44 2 35 4 -30 3 -84 0 -99 3 -132 24
-21 14 -38 28 -38 31 0 4 21 16 48 27 38 16 42 21 22 21 -14 1 -39 -8 -57 -19
-28 -17 -36 -18 -63 -6 l-31 13 52 77 c58 87 48 86 118 1 29 -35 37 -51 28
-57 -8 -5 -7 -8 5 -8 9 0 26 -16 38 -36 23 -35 40 -42 22 -7 -6 10 -13 41 -16
68 -6 51 -39 117 -75 149 -13 12 -19 26 -15 38 4 13 0 18 -13 18 -11 0 -37 18
-58 40 -43 45 -38 48 45 29 69 -15 77 -19 61 -28 -8 -5 17 -15 68 -28 l81 -20
-21 23 c-12 13 -34 26 -50 29 -31 7 -54 29 -45 43 3 6 35 18 72 28 49 13 62
20 49 26 -22 13 -67 1 -109 -27 -33 -23 -36 -23 -83 -9 -47 15 -129 14 -165
-1 -17 -7 -17 -4 -4 33 33 93 37 97 108 98 34 0 71 4 80 8 13 6 31 -5 73 -45
30 -28 55 -47 55 -42 0 20 -23 78 -38 96 -9 10 -10 17 -4 17 6 0 14 -4 17 -10
3 -5 11 -10 18 -10 28 0 -26 33 -99 60 -96 36 -108 37 -69 5 l30 -24 -55 -1
c-42 0 -51 3 -42 12 7 7 12 22 12 34 0 11 5 35 11 52 8 25 14 30 27 23 10 -4
47 -16 85 -26 37 -10 67 -22 67 -26 0 -5 -4 -9 -8 -9 -5 0 -17 -7 -28 -14 -16
-13 -13 -13 24 0 46 15 97 13 133 -6 l22 -12 -20 28 c-33 46 -54 60 -126 89
-37 15 -66 29 -65 31 2 2 47 9 99 17 119 18 158 36 84 38 -27 1 -75 1 -105 0
l-55 -1 35 20 c33 20 34 21 8 17 -16 -2 -28 0 -28 5 0 21 36 61 76 84 24 14
41 30 38 35 -20 33 -113 -29 -138 -92 -22 -55 -99 -129 -133 -129 -21 0 -23
-2 -13 -15 9 -11 8 -19 -7 -39 -17 -25 -53 -36 -53 -17 0 6 10 17 23 26 21 17
21 17 -23 10 -25 -4 -79 -7 -121 -8 -57 -2 -82 -6 -96 -19 -12 -12 -36 -18
-64 -18 l-44 0 33 -20 c17 -11 32 -25 32 -30 0 -16 60 -65 81 -66 19 -1 109
-61 109 -73 0 -5 -27 -8 -60 -6 -50 2 -65 7 -87 29 -16 17 -34 25 -45 23 -10
-3 -18 0 -18 5 0 6 -6 5 -15 -2 -8 -7 -15 -9 -15 -4 0 5 -5 1 -11 -8 -5 -10
-14 -18 -19 -18 -11 0 -13 43 -3 54 15 15 32 81 23 90 -7 7 -10 0 -10 -17 0
-21 -5 -27 -22 -27 -13 0 -38 -9 -57 -21 -22 -13 -42 -18 -59 -14 -24 6 -24 6
-6 27 18 21 17 21 -14 -1 -18 -13 -35 -22 -36 -20 -2 2 -5 69 -7 149 l-4 145
78 33 c90 39 272 87 379 100 99 13 248 13 337 2z m-1031 -407 c-2 -35 -1 -63
2 -63 3 0 3 -29 2 -65 -4 -62 -5 -65 -25 -59 -40 13 -125 6 -173 -15 -25 -12
-48 -21 -50 -21 -9 0 -3 37 8 48 16 16 5 15 -39 -3 -19 -8 -38 -15 -40 -15 -5
0 48 69 79 104 5 6 14 2 23 -10 15 -18 15 -18 9 9 -8 33 23 69 136 164 l65 54
3 -32 c2 -18 2 -61 0 -96z m688 43 c33 -7 66 -16 72 -20 14 -8 -22 -72 -49
-87 -16 -8 -22 -5 -37 23 -9 18 -29 45 -44 61 -42 43 -40 44 58 23z m-277 -82
c-18 -22 -49 -37 -49 -24 0 18 53 66 58 52 2 -7 -2 -20 -9 -28z m-109 -12 c0
-5 -13 -21 -30 -37 l-30 -29 0 37 c0 34 2 37 30 37 17 0 30 -4 30 -8z m10
-129 c0 -32 -7 -76 -15 -98 -8 -22 -15 -80 -15 -130 -1 -49 -4 -83 -7 -75 -3
8 -12 19 -20 23 -12 7 -12 11 -1 24 10 13 10 17 1 20 -10 4 -13 38 -13 126 0
120 0 121 28 144 15 12 30 22 35 23 4 0 7 -26 7 -57z m348 -67 c3 -24 -3 -29
-53 -51 -65 -29 -65 -29 -65 -10 0 8 5 15 10 15 21 0 60 49 60 76 0 25 1 26
23 12 12 -9 23 -27 25 -42z m-658 -12 l0 -56 -67 38 c-94 52 -103 58 -103 66
0 5 38 8 85 8 l85 0 0 -56z m560 4 c0 -16 -4 -28 -10 -28 -5 0 -10 19 -10 43
0 31 3 38 10 27 5 -8 10 -27 10 -42z m-687 -64 c64 -42 119 -83 121 -92 3 -10
6 -36 8 -59 1 -24 5 -43 9 -43 11 0 25 -52 21 -77 -4 -27 -22 -31 -22 -6 0 9
-14 31 -31 49 l-31 32 22 42 c12 23 20 46 18 52 -2 6 -14 -12 -26 -41 l-21
-51 -63 34 c-35 20 -64 41 -65 48 -3 13 59 47 88 49 24 2 -44 17 -83 18 -20 0
-38 4 -41 9 -2 4 -3 2 -1 -4 1 -6 -8 -17 -22 -24 -13 -8 -24 -17 -24 -22 0 -4
-9 -8 -20 -8 -33 0 -23 -14 38 -50 85 -50 92 -58 92 -103 0 -31 -3 -38 -15
-33 -12 4 -13 2 -6 -12 5 -9 8 -34 6 -54 -1 -26 4 -43 17 -54 10 -10 18 -24
18 -32 0 -8 7 -20 15 -26 30 -22 102 -733 75 -744 -4 -1 -1 -19 6 -40 7 -20
13 -64 14 -96 0 -48 -4 -65 -22 -85 -21 -24 -21 -24 -2 -8 21 18 22 17 28 -19
9 -44 6 -47 -29 -34 -40 15 -41 6 -1 -21 31 -21 36 -31 43 -79 6 -52 7 -136 1
-222 -2 -25 -8 -38 -17 -38 -11 0 -11 -4 2 -18 18 -20 22 -42 9 -42 -14 0
-165 135 -200 179 -32 40 -33 44 -21 74 13 34 73 144 103 190 23 34 13 35 -18
2 l-22 -24 -37 26 c-23 16 -53 27 -84 29 -53 5 -48 -1 10 -11 48 -8 104 -57
84 -73 -12 -11 -48 -83 -61 -126 -9 -26 -23 -12 -89 87 -103 155 -168 309
-213 502 -25 107 -28 139 -28 305 -1 140 3 207 17 275 25 126 86 305 103 305
18 0 17 -10 -1 -34 -11 -14 -12 -24 -4 -39 6 -11 9 -36 6 -56 l-6 -36 15 28
c20 38 29 28 15 -16 -12 -35 -11 -177 0 -177 4 0 9 15 12 34 3 19 24 75 48
125 39 85 44 91 71 91 l30 0 -31 -35 c-31 -35 -41 -78 -21 -90 6 -3 10 -1 10
4 0 6 12 21 26 34 14 12 35 39 45 60 l19 37 -50 0 c-44 0 -51 2 -46 18 3 9 8
35 12 56 l7 40 -29 -23 c-40 -31 -41 -14 -3 60 46 92 78 141 89 134 6 -3 7 1
4 9 -11 28 11 18 129 -60z m-300 -82 c-14 -40 -31 -72 -39 -72 -10 0 -9 10 5
43 20 45 54 107 58 104 1 -2 -10 -35 -24 -75z m989 -14 c-16 -41 -17 -42 -20
-15 -4 37 4 57 22 57 12 0 12 -6 -2 -42z m-252 -103 c0 -73 -1 -75 -20 -65
-11 6 -18 15 -15 20 3 5 8 28 11 52 12 95 24 92 24 -7z m-431 -19 c9 -11 9
-15 -1 -19 -7 -3 -3 -6 10 -6 12 -1 22 -6 22 -12 0 -5 4 -8 9 -5 5 3 30 -11
56 -30 l47 -36 -7 -147 c-12 -291 -13 -490 -1 -494 6 -3 4 -8 -6 -12 -15 -6
-15 -10 7 -44 37 -55 49 -137 36 -247 -6 -51 -11 -97 -11 -103 0 -6 -11 -11
-25 -11 l-25 0 0 100 c0 60 -4 100 -10 100 -6 0 -10 43 -10 110 0 108 -31 425
-51 528 -12 59 -53 155 -62 146 -3 -3 -6 40 -6 95 -1 99 5 115 28 87z m-299
-25 c-10 -20 -30 -29 -30 -14 0 10 33 44 37 39 3 -2 0 -14 -7 -25z m720 -50
c13 -26 4 -435 -10 -439 -5 -2 -4 -10 5 -18 8 -8 19 -31 25 -52 14 -53 12
-300 -4 -412 -7 -52 -13 -111 -12 -130 1 -26 -3 -35 -18 -38 -16 -3 -18 0 -12
25 4 15 9 87 12 158 7 140 -3 202 -36 235 -18 18 -18 20 -3 29 13 7 14 12 6
23 -12 14 -10 482 3 586 7 55 25 68 44 33z m2010 -154 c-1 -18 -48 -52 -231
-170 -127 -82 -235 -147 -241 -145 -6 2 93 81 221 176 128 95 237 169 242 166
5 -3 9 -15 9 -27z m-490 -337 c0 -5 -8 -10 -17 -10 -15 0 -16 2 -3 10 19 12
20 12 20 0z m370 -590 c0 -20 -102 -184 -163 -263 -104 -133 -97 -138 -97 75
0 102 3 188 7 191 10 11 253 8 253 -3z m-2161 -67 c-4 -27 -8 -73 -9 -103 0
-30 -5 -62 -10 -70 -7 -10 -10 21 -10 96 0 110 3 124 25 124 9 0 10 -13 4 -47z
m297 2 c3 -8 1 -96 -6 -197 -6 -101 -12 -195 -12 -210 -1 -16 -6 -28 -12 -28
-6 0 -5 -4 3 -9 8 -5 11 -16 8 -25 -4 -9 -1 -16 5 -16 8 0 9 -24 5 -81 -4 -45
-9 -84 -11 -86 -2 -3 -14 0 -25 7 -27 14 -28 59 -1 102 25 41 26 58 3 29 -18
-21 -18 -20 -20 49 -1 39 -7 79 -12 89 -6 10 -8 21 -4 24 3 4 7 82 9 174 3
144 6 170 21 180 22 17 42 16 49 -2z m1183 -84 c43 -43 40 -161 -4 -198 -14
-13 -30 -23 -36 -23 -5 0 -9 51 -9 120 0 100 3 120 15 120 8 0 24 -9 34 -19z
m-775 -16 c-20 -30 -30 -31 -44 -6 -10 20 -1 27 43 30 16 1 16 -1 1 -24z"/>
<path d="M1460 2893 c-46 -18 -93 -28 -160 -33 -52 -3 -82 -7 -67 -8 16 -1 26
-6 22 -12 -4 -6 -3 -10 2 -9 4 1 25 1 47 0 32 -1 37 -4 32 -18 -7 -17 -6 -17
10 -1 13 13 22 14 43 7 14 -6 42 -7 61 -3 l35 7 -33 9 c-35 9 -35 28 1 28 12
0 38 10 57 22 19 11 49 25 65 29 28 7 28 7 -10 7 -22 1 -69 -11 -105 -25z"/>
<path d="M1219 2813 c-13 -16 -12 -17 4 -4 9 7 17 15 17 17 0 8 -8 3 -21 -13z"/>
<path d="M1169 2773 c-13 -16 -12 -17 4 -4 9 7 17 15 17 17 0 8 -8 3 -21 -13z"/>
<path d="M1129 2743 c-13 -16 -12 -17 4 -4 9 7 17 15 17 17 0 8 -8 3 -21 -13z"/>
<path d="M1079 2703 c-13 -16 -12 -17 4 -4 9 7 17 15 17 17 0 8 -8 3 -21 -13z"/>
<path d="M1633 2557 c-18 -7 -39 -19 -48 -28 -14 -14 -12 -15 22 -11 21 2 45
11 54 19 9 8 30 18 45 23 l29 8 -35 0 c-19 0 -49 -5 -67 -11z"/>
<path d="M1726 2338 c22 -21 63 -52 92 -68 51 -28 53 -28 46 -7 -13 47 -34 64
-104 89 l-72 26 38 -40z"/>
<path d="M2422 2170 c0 -14 2 -19 5 -12 2 6 2 18 0 25 -3 6 -5 1 -5 -13z"/>
<path d="M2413 2095 c0 -27 2 -38 4 -22 2 15 2 37 0 50 -2 12 -4 0 -4 -28z"/>
<path d="M1374 2111 c5 -8 56 -3 56 5 0 2 -14 4 -31 4 -16 0 -28 -4 -25 -9z"/>
<path d="M2512 2060 c0 -14 2 -19 5 -12 2 6 2 18 0 25 -3 6 -5 1 -5 -13z"/>
<path d="M2331 2024 c0 -11 3 -14 6 -6 3 7 2 16 -1 19 -3 4 -6 -2 -5 -13z"/>
<path d="M2421 2024 c0 -11 3 -14 6 -6 3 7 2 16 -1 19 -3 4 -6 -2 -5 -13z"/>
<path d="M2531 1994 c0 -11 3 -14 6 -6 3 7 2 16 -1 19 -3 4 -6 -2 -5 -13z"/>
<path d="M1405 1990 c-34 -6 -36 -7 -10 -8 17 0 48 3 70 7 33 7 35 9 10 8 -16
0 -48 -3 -70 -7z"/>
<path d="M2432 1975 c0 -16 2 -22 5 -12 2 9 2 23 0 30 -3 6 -5 -1 -5 -18z"/>
<path d="M1720 1946 c0 -3 15 -15 33 -27 23 -17 28 -18 18 -6 -14 18 -51 42
-51 33z"/>
<path d="M2510 1931 c0 -11 4 -22 9 -25 4 -3 6 6 3 19 -5 30 -12 33 -12 6z"/>
<path d="M2331 1894 c0 -11 3 -14 6 -6 3 7 2 16 -1 19 -3 4 -6 -2 -5 -13z"/>
<path d="M2413 1855 c0 -22 2 -30 4 -17 2 12 2 30 0 40 -3 9 -5 -1 -4 -23z"/>
<path d="M2141 1549 c-18 -11 -31 -22 -28 -25 2 -3 20 4 38 15 19 12 48 21 64
21 l30 -1 -40 -19 c-22 -11 -31 -17 -20 -14 11 3 28 9 38 11 9 3 31 0 47 -7
43 -18 47 -6 7 19 -43 27 -92 27 -136 0z"/>
<path d="M1588 1501 c-68 -22 -112 -48 -155 -93 -54 -56 -79 -141 -52 -178 9
-13 10 -12 5 3 -9 29 12 69 67 126 45 46 161 132 207 153 32 14 -14 7 -72 -11z"/>
<path d="M2058 1468 c14 -119 83 -233 169 -283 38 -22 52 -36 53 -52 0 -23 1
-23 145 -23 l145 0 0 23 c0 16 9 28 28 36 51 23 99 62 131 106 37 52 71 143
71 192 l0 33 -373 0 -374 0 5 -32z"/>
<path d="M1423 905 c37 -13 75 -29 84 -37 14 -11 16 -11 11 2 -9 30 -69 60
-117 59 l-46 0 68 -24z"/>
<path d="M1640 898 c-33 -11 -30 -12 60 -20 52 -4 104 -7 115 -5 17 3 15 5
-10 17 -41 18 -123 22 -165 8z"/>
<path d="M633 2584 l-28 -25 33 22 c17 13 32 24 32 26 0 8 -11 1 -37 -23z"/>
<path d="M475 825 l-30 -25 38 21 c20 11 37 23 37 25 0 10 -17 2 -45 -21z"/>
</g>
</svg>
